<?xml version="1.0" encoding="UTF-8"?>
<svg id="Layer_1" data-name="Layer 1" xmlns="http://www.w3.org/2000/svg" viewBox="0 0 340.9 246.04">
  <path d="M326.91,200.42c-34.67-26.94-68.34-55.2-102.85-82.16-1.22-.96-2.73-1.16-4.13-.91-.16-.75-.27-1.5-.45-2.25-.79-3.4-6.14-2.65-6.05.82.38,14.99-.02,29.97-.37,44.95-1.95-.62-4.11-.25-6.14-.09-1.24.1-2.45.3-3.68.46,2.33-20.18.33-37.54-24.3-44.18-2.95-.79-5.89-1.52-8.83-2.23.15-.54.24-1.13.28-1.75.59-11.18,6.19-27.69,2.56-38.73-4.35-13.26-12.74-21.57-23.43-30.24-23.98-19.47-51.77-19.26-81.31-17.69-4.02.21-7.71,3.28-7.57,7.57.53,16.32,2.31,32.62,3.71,48.9-11.68-3.97-23.48-7.58-35.64-10.36-2.63-.6-6.21.78-6.68,3.79-2.48,15.77-20.62,100.84-1.15,105.81.39.1.79.09,1.18.02-.4.08-.81.06-1.2.18-2.79.87-2.67,4.62,0,5.54,4.51,1.55,9.57,1.51,14.13,3.03,1.48.5,3.09-.06,4.24-1.09-.23,1.3-.44,2.6-.5,3.92-.82,20.66,28.33,31.24,44.7,24.46,12.67-5.26,18.47-18.21,18.38-31.16.48.87,1.2,1.61,2.17,1.94,5.29,1.78,11.31,2.12,16.81,3.01,4.78.77,11.75,3.38,16.46,1.79.6-.2,1-.56,1.43-.9.06.5.1,1.01.19,1.51,3.28,18.74,21.28,30.69,39.68,23.85,11.98-4.45,17.94-15.73,19.56-27.68.02,0,.03.01.06.01,3.04.26,6.08.45,9.13.59,1.96.09,3.78.23,5.56.08.04,3.61,0,7.21.12,10.82.13,3.78,2.83,5.97,6.37,6.38,34.24,3.94,68.69,4.1,103.1,2.78,4.92-.19,9.16-7.16,4.47-10.8ZM75.91,41.19c18.52-.9,37.05-1.15,54.08,7.44,11.85,5.97,27.73,19.54,28.41,33.61.08,1.56-.04,3.15-.11,4.73-.39-.27-.84-.47-1.37-.58-3.8-.75-7.62-.08-11.47.21-2.94.22-5.88.32-8.82.45.29-2.64.64-5.27,1.22-7.89.39-1.74.06-3.71-1.31-4.96-.2-.19-.41-.37-.61-.56-.94-.86-2.48-1.51-3.76-.99-.2.08-.39.16-.59.24-2.3.93-3.51,2.42-3.75,4.92-.65,6.98-.57,14.21.36,21.17.61,4.62,6.57,4.62,7.19,0,.22-1.68.4-3.35.56-5.03,2.61.16,5.23.27,7.85.38,4.38.18,8.81,1.13,13.14.28.28-.06.49-.2.74-.3-.75,5.76-1.81,11.56-2.24,17.25-13.7-2.95-27.35-5.81-41-10.61-4.17-1.46-8.29-2.99-12.42-4.5-.07-3.89-.22-7.79-.35-11.68-.14-4.22-.68-9.97,1.21-13.88,4.5-9.3-11-13.31-11.66-3.16-.55,8.56-.17,16.98,1.47,25.33-6.02-2.22-12.02-4.43-18.05-6.58,2.69-14.96,1.66-30.14,1.29-45.29ZM53.34,192.17c.04-1.14.27-2.24.59-3.31,1.87,3.4,3.92,6.69,6.32,9.82,1.61,2.09,3.4,4.49,5.4,6.65-6.71-1.88-12.56-6.65-12.32-13.16ZM84.71,199.57c-.97-.94-2.19-1.66-3.26-2.49-2.12-1.66-4.06-3.55-5.98-5.44-3.98-3.91-7.69-8.11-11.27-12.38-1.67-1.99-5.2.72-3.61,2.78,3.54,4.59,7.21,9.07,11.13,13.34,2.08,2.26,5.48,6.59,9,8.29-.12.08-.21.2-.33.28-1.79,1.2-4.01,1.87-6.38,2.13-2.5-3.24-6.1-5.92-8.83-8.85-3.57-3.85-6.63-8.13-9.17-12.71,2.27-3.43,5.79-6.36,9.64-8.78.06.16.04.33.18.48,3.8,4.24,7.44,8.63,11.28,12.84,2.57,2.81,5.41,6.1,8.82,8.1-.39.81-.72,1.67-1.22,2.41ZM87.76,191.65c-2.77-2.39-6-4.46-8.64-6.83-3.8-3.4-7.42-7-11.18-10.44,1.87-1.04,3.76-1.94,5.61-2.74,3.73,4.56,8.83,8.3,14.07,10.77.68,2.94.71,6.13.14,9.24ZM154.5,197.02c3.16,2.49,6.2,5.16,9.33,7.64.99.79,2.05,1.65,3.16,2.5-5.55-.41-10.08-4.64-12.48-10.14ZM176.24,204.38c-.54.36-1.07.66-1.6.95-3.58-2.13-7.39-3.97-10.81-6.43-3.62-2.6-7.18-5.33-10.97-7.68-.36-2.54-.21-5.14.4-7.64,5.5,5.19,16.98,16.53,24.13,19.85-.39.31-.73.68-1.15.96ZM180.85,199.77c-.13-.09-.39-.23-.98-.66-1.06-.77-2.14-1.51-3.17-2.31-2.69-2.09-5.23-4.38-7.88-6.52-4.58-3.69-9.1-7.55-13.95-10.9.76-1.41,1.81-2.69,3.01-3.9,4.53,4.46,9.2,8.76,14.18,12.72,3.2,2.55,6.89,5.78,10.88,7.69-.61,1.36-1.25,2.7-2.09,3.89ZM175.74,183.41c-4.7-3.42-9.05-7.31-13.29-11.29,1-.53,2.09-1,3.25-1.42,2.98,3.64,6.25,6.94,9.93,9.89,2.7,2.16,6,5.27,9.52,6.55-.07.67-.04,1.34-.15,2-3.08-2-6.5-3.73-9.26-5.74ZM170.8,168.29c.13-.17.31-.3.41-.48,2.97-.46,5.96-1.03,8.61.56,3.19,1.92,4.3,6.95,5.02,10.23.06.26.04.55.09.82-1.59-.86-3.23-1.67-4.66-2.62-3.53-2.33-6.64-5.34-9.47-8.52ZM191.04,161.24c-6.94-7.86-17.67-11.71-26.52-2.69-.59.6-.95,1.33-1.19,2.08-13.85.84-23.4,11.65-24.78,24.82-3.5-3.19-10.72-2.93-14.99-3.35-6.34-.62-13.25-1.73-19.59-.68-1.2.2-1.95.85-2.37,1.68-.14-1.42-.28-2.85-.57-4.24-3.09-14.93-22.31-29.78-37.07-19.8-1.08.73-1.81,1.8-2.24,2.96-9.69,4.53-17.81,13.09-21.23,22.95-.63-2.36-3.36-3.27-5.51-2.9-4.13.73-8.62-.66-12.79.08,1.23-.28,2.29-1.31,2.2-2.68-2.1-32.11,2.97-65.77,7.68-97.55-.67,4.5,80.21,31.11,88.73,34.14,13.56,4.84,27.47,8.81,41.73,10.86,24.62,3.53,29.52,16.41,28.51,34.32Z"/>
</svg>